<svg 
  viewBox="0 0 100 100" 
  xmlns="http://www.w3.org/2000/svg"
>
  <path d="M15.4,87.6 C25.5,57.1 48.7,32.2 78.4,14.6 C82.8,11.9 87.5,9.6 92.4,7.8 C85.6,22.1 74.3,34.4 60.1,43.4 C49.2,50.3 36.6,54.7 23.4,56.1 C38.5,53.8 52.8,57.4 64.9,65.4 C70.6,69.2 75.4,74.1 79.1,79.8 C63.5,82.8 47.1,80.5 33.1,73.1 C25.8,69.2 19.3,64.2 13.9,58.3 C12.4,68.4 13.1,78.6 15.4,87.6 Z" fill="#2563eb" />
  <path d="M14.8,75.4 C25.7,46.5 49.3,23.3 78.9,8.4 C73.1,17.4 65.2,25.2 55.6,31.4 C40.2,41.4 22.8,47.6 4.3,49.2 C6.3,58.3 10.1,67.2 14.8,75.4 Z" fill="#2563eb" />
</svg>
